<?xml version="1.0" encoding="iso-8859-1"?><!-- Generator: Adobe Illustrator 21.1.0, SVG Export Plug-In . SVG Version: 6.00 Build 0)  --><svg xmlns="http://www.w3.org/2000/svg" xmlns:xlink="http://www.w3.org/1999/xlink" viewBox="0 0 50 50" width="50px" height="50px"><path d="M43,4H7C5.35,4,4,5.35,4,7v36c0,1.65,1.35,3,3,3h36c1.65,0,3-1.35,3-3V7C46,5.35,44.65,4,43,4z M36.29,37.71l-7.82-7.82C26.84,31.21,24.76,32,22.5,32c-5.24,0-9.5-4.26-9.5-9.5s4.26-9.5,9.5-9.5s9.5,4.26,9.5,9.5c0,2.26-0.79,4.34-2.11,5.97l7.82,7.82L36.29,37.71z"/><circle cx="22.5" cy="22.5" r="7.5"/></svg>